<svg width="181" height="181" viewBox="0 0 181 181" fill="none" xmlns="http://www.w3.org/2000/svg">
<path d="M163.269 26.4776V144.312C159.173 149.842 154.459 154.891 149.233 159.354C133.427 172.851 112.918 181 90.5 181C77.5161 181 65.1748 178.267 54.0154 173.342C49.1949 171.219 44.596 168.685 40.2629 165.785C37.3005 163.809 34.4674 161.658 31.7669 159.354C26.5402 154.891 21.8267 149.842 17.7302 144.312V26.4776C17.7302 19.0492 23.7513 13.0281 31.1797 13.0281H149.82C157.248 13.0285 163.269 19.0492 163.269 26.4776Z" fill="#343A6E"/>
<path d="M149.233 51.7957V159.354C133.427 172.851 112.918 181 90.5 181C77.5161 181 65.1749 178.267 54.0154 173.342C49.1949 171.219 44.596 168.685 40.263 165.785C37.3005 163.809 34.4674 161.658 31.7669 159.354V51.7957C31.7669 47.112 35.5605 43.3184 40.2407 43.3184H140.755C145.435 43.318 149.233 47.1116 149.233 51.7957Z" fill="#F0F0F0"/>
<path d="M126.514 16.6449V40.4408C126.514 44.8884 122.912 48.4896 118.465 48.4896H62.5327C58.0851 48.4896 54.4838 44.888 54.4838 40.4408V16.6449C54.4838 12.1974 58.0854 8.5961 62.5327 8.5961H76.6139C79.1553 3.50229 84.4192 0.000366211 90.4993 0.000366211C91.445 0.000366211 92.3722 0.08521 93.2698 0.247827C97.5251 1.01248 101.175 3.51679 103.461 6.99291C103.491 7.0371 103.517 7.07775 103.543 7.12229C103.76 7.45849 103.968 7.80564 104.156 8.16021C104.241 8.31541 104.319 8.46318 104.385 8.5961H118.466C122.913 8.5961 126.514 12.1977 126.514 16.6449Z" fill="#F2AE5A"/>
<path d="M126.514 16.6449V40.4408C126.514 44.8884 122.912 48.4896 118.465 48.4896H68.0733C63.6257 48.4896 60.0245 44.888 60.0245 40.4408V16.6449C60.0245 12.1974 63.6261 8.5961 68.0733 8.5961H76.6135C79.155 3.50229 84.4188 0.000366211 90.4989 0.000366211C91.4446 0.000366211 92.3719 0.08521 93.2694 0.247827C97.5247 1.01248 101.174 3.51679 103.461 6.99291C103.491 7.0371 103.516 7.07775 103.542 7.12229C103.779 7.50267 103.986 7.85372 104.156 8.16021C104.24 8.31541 104.318 8.46318 104.385 8.5961H118.466C122.913 8.5961 126.514 12.1977 126.514 16.6449Z" fill="#F9DF73"/>
<path d="M90.5 18.0152C93.4581 18.0152 95.8561 15.6172 95.8561 12.6591C95.8561 9.70096 93.4581 7.30295 90.5 7.30295C87.5419 7.30295 85.1439 9.70096 85.1439 12.6591C85.1439 15.6172 87.5419 18.0152 90.5 18.0152Z" fill="#343A6E"/>
<path d="M110.446 36.6695H70.5518C68.4099 36.6695 66.6734 34.933 66.6734 32.791C66.6734 30.6491 68.4099 28.9126 70.5518 28.9126H110.446C112.588 28.9126 114.324 30.6491 114.324 32.791C114.324 34.933 112.588 36.6695 110.446 36.6695Z" fill="#F2AE5A"/>
<path d="M67.2284 93.5547H43.9569C41.9171 93.5547 40.263 91.901 40.263 89.8608V66.5892C40.263 64.5491 41.9171 62.8954 43.9569 62.8954H67.2284C69.2682 62.8954 70.9223 64.5491 70.9223 66.5892V89.8608C70.9223 91.901 69.2682 93.5547 67.2284 93.5547ZM47.6511 86.1669H63.5349V70.2831H47.6511V86.1669Z" fill="#5897D1"/>
<path d="M104.537 74.7162H81.2651C79.2253 74.7162 77.5712 73.0625 77.5712 71.0224C77.5712 68.9822 79.2253 67.3285 81.2651 67.3285H104.537C106.576 67.3285 108.231 68.9822 108.231 71.0224C108.231 73.0625 106.576 74.7162 104.537 74.7162Z" fill="#484B7F"/>
<path d="M133.349 89.1224H81.2655C79.2257 89.1224 77.5716 87.4686 77.5716 85.4285C77.5716 83.3883 79.2257 81.7346 81.2655 81.7346H133.349C135.389 81.7346 137.043 83.3883 137.043 85.4285C137.043 87.4686 135.389 89.1224 133.349 89.1224Z" fill="#484B7F"/>
<path d="M67.2284 133.449H43.9569C41.9171 133.449 40.263 131.795 40.263 129.755V106.483C40.263 104.443 41.9171 102.789 43.9569 102.789H67.2284C69.2682 102.789 70.9223 104.443 70.9223 106.483V129.755C70.9223 131.795 69.2682 133.449 67.2284 133.449ZM47.6511 126.061H63.5349V110.177H47.6511V126.061Z" fill="#5897D1"/>
<path d="M104.537 114.61H81.2651C79.2253 114.61 77.5712 112.956 77.5712 110.916C77.5712 108.876 79.2253 107.222 81.2651 107.222H104.537C106.576 107.222 108.231 108.876 108.231 110.916C108.231 112.956 106.576 114.61 104.537 114.61Z" fill="#484B7F"/>
<path d="M133.349 129.016H81.2655C79.2257 129.016 77.5716 127.362 77.5716 125.322C77.5716 123.282 79.2257 121.628 81.2655 121.628H133.349C135.389 121.628 137.043 123.282 137.043 125.322C137.043 127.362 135.389 129.016 133.349 129.016Z" fill="#484B7F"/>
<path d="M67.2284 142.683H43.9569C41.9178 142.683 40.263 144.338 40.263 146.377V165.785C44.596 168.685 49.1949 171.219 54.0154 173.343H67.2284C69.2675 173.343 70.9223 171.688 70.9223 169.649V146.377C70.9223 144.338 69.2675 142.683 67.2284 142.683ZM63.5346 165.955H47.6507V150.071H63.5346V165.955Z" fill="#5897D1"/>
<path d="M104.537 154.504H81.2651C79.2253 154.504 77.5712 152.85 77.5712 150.81C77.5712 148.77 79.2253 147.116 81.2651 147.116H104.537C106.576 147.116 108.231 148.77 108.231 150.81C108.231 152.85 106.576 154.504 104.537 154.504Z" fill="#484B7F"/>
<path d="M133.349 168.91H81.2655C79.2257 168.91 77.5716 167.256 77.5716 165.216C77.5716 163.176 79.2257 161.522 81.2655 161.522H133.349C135.389 161.522 137.043 163.176 137.043 165.216C137.043 167.256 135.389 168.91 133.349 168.91Z" fill="#484B7F"/>
<path d="M55.4076 130.124C54.1791 130.124 53.0228 129.511 52.3352 128.479L40.5147 110.748C39.3831 109.051 39.8416 106.757 41.5392 105.626C43.2367 104.494 45.53 104.953 46.6616 106.651L54.8632 118.953L65.3682 96.7753C66.2411 94.9317 68.4438 94.1448 70.2878 95.0183C72.1313 95.8915 72.9179 98.0942 72.0447 99.9378L58.7469 128.011C58.1774 129.214 57.0044 130.017 55.6773 130.114C55.5865 130.121 55.4967 130.124 55.4076 130.124Z" fill="#EF487D"/>
</svg>
