<svg width="181" height="181" viewBox="0 0 181 181" fill="none" xmlns="http://www.w3.org/2000/svg">
    <path d="M181 90.5C181 110.654 174.41 129.271 163.269 144.312C159.173 149.842 154.459 154.892 149.233 159.354C133.427 172.851 112.918 181 90.5 181C77.5161 181 65.1749 178.267 54.0154 173.342C49.1949 171.219 44.596 168.685 40.263 165.785C37.3005 163.809 34.4674 161.658 31.7669 159.354C26.5402 154.891 21.8268 149.842 17.7302 144.312C6.58988 129.271 0 110.654 0 90.5C0 70.3461 6.58988 51.7292 17.7306 36.6875C24.7489 27.2126 33.5737 19.1563 43.6949 13.0281C57.3512 4.75761 73.3679 0 90.5 0C90.6181 0 90.7365 0 90.8546 0.00353516C107.854 0.0664609 123.745 4.81312 137.305 13.0281C147.426 19.1563 156.251 27.2126 163.269 36.6875C174.41 51.7289 181 70.3461 181 90.5Z" fill="#EF487D"/>
    <path d="M168.491 77.9908C168.491 95.3587 162.812 111.403 153.211 124.365C149.681 129.13 145.619 133.482 141.115 137.328C127.494 148.959 109.82 155.982 90.5007 155.982C79.3116 155.982 68.6761 153.626 59.059 149.383C54.9049 147.552 50.9416 145.368 47.2074 142.869C44.6547 141.167 42.2129 139.314 39.8858 137.327C35.3816 133.482 31.3197 129.13 27.7895 124.365C18.1887 111.402 12.5099 95.3584 12.5099 77.9905C12.5099 60.6226 18.1884 44.5787 27.7892 31.6163C33.8375 23.4512 41.4426 16.5085 50.1646 11.2273C61.9331 4.10007 75.7358 0 90.5 0C90.6018 0 90.704 0 90.8055 0.00318164C105.455 0.0572695 119.15 4.1478 130.835 11.2273C139.558 16.5085 147.163 23.4512 153.211 31.6163C162.812 44.5787 168.491 60.623 168.491 77.9908Z" fill="#FF668C"/>
</svg>
